<svg xmlns="http://www.w3.org/2000/svg" width="100" height="32" viewBox="0 0 100 32">
  <g id="logotype" transform="translate(-12.501 -23.445)">
    <path id="Path_1" data-name="Path 1" d="M30.012,23.774l2.825,2.549a1.265,1.265,0,0,1,.085,1.791l-.775.845a15.845,15.845,0,0,0-4.7-4.271l.761-.829a1.29,1.29,0,0,1,1.806-.084Z" transform="translate(8.023 0)" fill="#3b9d36" fill-rule="evenodd"/>
    <path id="Path_2" data-name="Path 2" d="M27.272,23.494A14.711,14.711,0,0,1,42.041,38.145a14.5,14.5,0,0,1-2.891,8.706l-4.409-7.576a7.605,7.605,0,0,0,.086-1.13,7.555,7.555,0,1,0-7.555,7.494,7.618,7.618,0,0,0,2.378-.38L33.3,51.524a14.682,14.682,0,1,1-6.024-28.03Z" transform="translate(0 0.026)" fill="#3b9d36" fill-rule="evenodd"/>
    <path id="Path_3" data-name="Path 3" d="M21.748,38.13c.184.014.37.021.559.021a7.618,7.618,0,0,0,2.378-.38l3.647,6.265a14.7,14.7,0,0,1-2.633.881L21.748,38.13Z" transform="translate(4.964 7.513)" fill="#2b7430" fill-rule="evenodd"/>
    <path id="Path_4" data-name="Path 4" d="M27.586,34.822l6.665,11.451-5.6,3.207L21.986,38.029l5.6-3.207Z" transform="translate(5.092 5.966)" fill="#3b9d36" fill-rule="evenodd"/>
    <path id="Path_5" data-name="Path 5" d="M48.191,44.994a8.87,8.87,0,0,1-12.313,0,8.614,8.614,0,0,1,0-12.18,8.87,8.87,0,0,1,12.313,0,8.618,8.618,0,0,1,0,12.18Zm48.2-11.32a4,4,0,0,1,1.85-2.387,5.88,5.88,0,0,1,3.061-.828V35.98a4.96,4.96,0,0,0-3.356.6,3.279,3.279,0,0,0-1.555,3.1v7.341H91.481V30.784h4.912v2.89Zm-19.517,7.18q.851,2.273,3.93,2.273a4.078,4.078,0,0,0,3.143-1.235l3.93,2.241a8.249,8.249,0,0,1-7.139,3.346,8.991,8.991,0,0,1-6.6-2.436A8.256,8.256,0,0,1,71.67,38.9a8.331,8.331,0,0,1,2.441-6.123,8.465,8.465,0,0,1,6.27-2.451,7.932,7.932,0,0,1,5.943,2.451A8.456,8.456,0,0,1,88.7,38.9a9.258,9.258,0,0,1-.2,1.95Zm-.1-3.639h7.04a3.256,3.256,0,0,0-3.47-2.566,3.32,3.32,0,0,0-3.57,2.566ZM72,28.511q-3.045-.261-3.045,2.273H72v4.677H68.953V47.025H64.039V35.461H58.965V47.025H54.053V35.461H51.858V30.784h2.195a6.9,6.9,0,0,1,2-5.343q2-1.834,5.96-1.608v4.678q-3.045-.261-3.044,2.273h5.075a6.9,6.9,0,0,1,2-5.343q2-1.834,5.96-1.608v4.678ZM39.35,41.665a3.9,3.9,0,0,0,5.37,0,4.067,4.067,0,0,0,0-5.521,3.9,3.9,0,0,0-5.37,0,4.067,4.067,0,0,0,0,5.521Z" transform="translate(11.196 0.19)" fill="#3b9d36"/>
  </g>
</svg>
